<?xml version="1.0" encoding="UTF-8"?>
<svg width="24px" height="24px" viewBox="0 0 24 24" version="1.1" xmlns="http://www.w3.org/2000/svg">
    <g stroke="none" stroke-width="1" fill="none" fill-rule="evenodd">
        <path d="M8.5,2 L15.5,2 C15.7761424,2 16,2.22385763 16,2.5 L16,5 L18.75,5 C20.5449254,5 22,6.45507456 22,8.25 L22,17.75 C22,19.5449254 20.5449254,21 18.75,21 L5.25,21 C3.45507456,21 2,19.5449254 2,17.75 L2,8.25 C2,6.45507456 3.45507456,5 5.25,5 L8,5 L8,2.5 C8,2.22385763 8.22385763,2 8.5,2 Z M8.5,4 L8.5,5 L15.5,5 L15.5,4 L8.5,4 Z M5.25,7 C4.55964406,7 4,7.55964406 4,8.25 L4,17.75 C4,18.4403559 4.55964406,19 5.25,19 L18.75,19 C19.4403559,19 20,18.4403559 20,17.75 L20,8.25 C20,7.55964406 19.4403559,7 18.75,7 L5.25,7 Z M12,9 C14.209139,9 16,10.790861 16,13 C16,15.209139 14.209139,17 12,17 C9.790861,17 8,15.209139 8,13 C8,10.790861 9.790861,9 12,9 Z M12,11 C10.8954305,11 10,11.8954305 10,13 C10,14.1045695 10.8954305,15 12,15 C13.1045695,15 14,14.1045695 14,13 C14,11.8954305 13.1045695,11 12,11 Z" fill="#000000"></path>
    </g>
</svg>
