<?xml version="1.0" encoding="UTF-8"?>
<svg width="24px" height="24px" viewBox="0 0 24 24" version="1.1" xmlns="http://www.w3.org/2000/svg">
    <g stroke="none" stroke-width="1" fill="none" fill-rule="evenodd">
        <path d="M12,2 C17.5228475,2 22,6.4771525 22,12 C22,17.5228475 17.5228475,22 12,22 C6.4771525,22 2,17.5228475 2,12 C2,6.4771525 6.4771525,2 12,2 Z M12,4 C7.581722,4 4,7.581722 4,12 C4,16.418278 7.581722,20 12,20 C16.418278,20 20,16.418278 20,12 C20,7.581722 16.418278,4 12,4 Z M12,5 C13.018625,5 14.0023333,5.19379447 14.9115244,5.5461 C14.5234553,6.09766331 14.1637498,6.80161245 13.8458061,7.6 L10.1541939,7.6 C9.83625017,6.80161245 9.47654472,6.09766331 9.08847556,5.5461 C9.99766669,5.19379447 10.981375,5 12,5 Z M16.1645413,6.5999 C16.6052549,7.18740846 16.9700685,7.90783751 17.2481595,8.7 L14.4583333,8.7 C14.6929083,8.04077464 14.9563461,7.29424872 15.2585784,6.5999 L16.1645413,6.5999 Z M8.74142157,6.5999 C9.04365392,7.29424872 9.30709166,8.04077464 9.54166667,8.7 L6.75184047,8.7 C7.02993147,7.90783751 7.39474513,7.18740846 7.83545875,6.5999 L8.74142157,6.5999 Z M18.3270982,9.8 C18.5580708,10.4998332 18.7,11.2357635 18.7,12 C18.7,12.7642365 18.5580708,13.5001668 18.3270982,14.2 L14.8333333,14.2 C14.8777778,13.4773874 14.9,12.7453964 14.9,12 C14.9,11.2546036 14.8777778,10.5226126 14.8333333,9.8 L18.3270982,9.8 Z M13.7333333,9.8 C13.7777778,10.5226126 13.8,11.2546036 13.8,12 C13.8,12.7453964 13.7777778,13.4773874 13.7333333,14.2 L10.2666667,14.2 C10.2222222,13.4773874 10.2,12.7453964 10.2,12 C10.2,11.2546036 10.2222222,10.5226126 10.2666667,9.8 L13.7333333,9.8 Z M9.16666667,9.8 C9.12222222,10.5226126 9.1,11.2546036 9.1,12 C9.1,12.7453964 9.12222222,13.4773874 9.16666667,14.2 L5.67290179,14.2 C5.44192922,13.5001668 5.3,12.7642365 5.3,12 C5.3,11.2357635 5.44192922,10.4998332 5.67290179,9.8 L9.16666667,9.8 Z M17.2481595,15.3 C16.9700685,16.0921625 16.6052549,16.8125915 16.1645413,17.4001 L15.2585784,17.4001 C14.9563461,16.7057513 14.6929083,15.9592254 14.4583333,15.3 L17.2481595,15.3 Z M9.54166667,15.3 C9.30709166,15.9592254 9.04365392,16.7057513 8.74142157,17.4001 L7.83545875,17.4001 C7.39474513,16.8125915 7.02993147,16.0921625 6.75184047,15.3 L9.54166667,15.3 Z M13.8458061,16.4 C14.1637498,17.1983876 14.5234553,17.9023367 14.9115244,18.4539 C14.0023333,18.8062055 13.018625,19 12,19 C10.981375,19 9.99766669,18.8062055 9.08847556,18.4539 C9.47654472,17.9023367 9.83625017,17.1983876 10.1541939,16.4 L13.8458061,16.4 Z" fill="#000000"></path>
    </g>
</svg>
